<?xml version="1.0" encoding="UTF-8"?>
<svg xmlns="http://www.w3.org/2000/svg" version="1.1" width="200" height="200" viewBox="0 0 200 200"><rect x="0" y="0" width="200" height="200" fill="#fefefe"/><g transform="scale(6.897)"><g transform="translate(4.000,4.000)"><path fill-rule="evenodd" d="M9 0L9 1L8 1L8 3L9 3L9 4L8 4L8 8L6 8L6 9L5 9L5 10L4 10L4 8L3 8L3 9L2 9L2 8L0 8L0 9L2 9L2 10L1 10L1 11L2 11L2 12L0 12L0 13L7 13L7 12L6 12L6 11L7 11L7 10L9 10L9 9L10 9L10 12L12 12L12 13L11 13L11 14L9 14L9 13L8 13L8 15L11 15L11 16L10 16L10 18L9 18L9 17L8 17L8 18L9 18L9 19L8 19L8 21L13 21L13 20L16 20L16 21L19 21L19 20L18 20L18 19L19 19L19 18L20 18L20 20L21 20L21 15L20 15L20 16L18 16L18 15L19 15L19 14L18 14L18 13L17 13L17 12L16 12L16 13L15 13L15 12L14 12L14 13L15 13L15 16L14 16L14 14L13 14L13 15L11 15L11 14L12 14L12 13L13 13L13 12L12 12L12 11L14 11L14 10L15 10L15 9L17 9L17 8L14 8L14 10L12 10L12 11L11 11L11 8L13 8L13 4L12 4L12 3L13 3L13 2L12 2L12 1L13 1L13 0L11 0L11 2L12 2L12 3L11 3L11 4L12 4L12 5L11 5L11 6L10 6L10 7L9 7L9 4L10 4L10 0ZM11 6L11 7L12 7L12 6ZM8 8L8 9L9 9L9 8ZM18 8L18 9L19 9L19 10L17 10L17 11L18 11L18 12L20 12L20 14L21 14L21 11L20 11L20 10L21 10L21 9L20 9L20 8ZM6 9L6 10L7 10L7 9ZM2 10L2 11L4 11L4 12L5 12L5 11L4 11L4 10ZM8 11L8 12L9 12L9 11ZM16 14L16 15L17 15L17 14ZM12 16L12 18L11 18L11 20L13 20L13 19L16 19L16 18L19 18L19 17L18 17L18 16L17 16L17 17L16 17L16 18L15 18L15 17L14 17L14 16ZM12 18L12 19L13 19L13 18ZM0 0L0 7L7 7L7 0ZM1 1L1 6L6 6L6 1ZM2 2L2 5L5 5L5 2ZM21 0L14 0L14 7L21 7ZM20 1L15 1L15 6L20 6ZM19 2L16 2L16 5L19 5ZM0 21L7 21L7 14L0 14ZM1 20L6 20L6 15L1 15ZM2 19L5 19L5 16L2 16Z" fill="#000000"/></g></g></svg>
